# xmcd
#
# Track frame offsets:
#	150
#	29045
#	46930
#	60350
#	85835
#	97472
#	133137
#	157820
#	176910
#	203602
#
# Disc length: 2945 seconds
# Revision: 0
# Processed by: cddbd v1.5.2PL0 Copyright (c) Steve Scherf et al.
# Submitted via: dBpowerAMP V12.0
#
DISCID=870b7f0a
DTITLE=Alvin Lee - One More Chance
DYEAR=1900
DGENRE=
TTITLE0=Let The Sun Burn Down
TTITLE1=You Told Me
TTITLE2=How Many More Times
TTITLE3=Going Through The Door
TTITLE4=I've Got Eyes For You, Baby
TTITLE5=Ride My Train
TTITLE6=Julian Rice
TTITLE7=One More Chance
TTITLE8=Rock 'N Roll
TTITLE9=Johnny B. Goode
EXTD=
EXTT0=
EXTT1=
EXTT2=
EXTT3=
EXTT4=
EXTT5=
EXTT6=
EXTT7=
EXTT8=
EXTT9=
PLAYORDER=
